# Blender 4.4.0
# www.blender.org
mtllib TutorialFont.mtl
o 立方体
v 22.514612 -6.166015 -13.375700
v 22.514612 6.166015 -13.375700
v 22.514612 -6.166015 -15.375700
v 22.514612 6.166015 -15.375700
v -0.273287 -6.166015 -13.375700
v -0.273287 6.166015 -13.375700
v -0.273287 -6.166015 -15.375700
v -0.273287 6.166015 -15.375700
vn 1.0000 -0.0000 -0.0000
vn -0.0000 -0.0000 -1.0000
vn -1.0000 -0.0000 -0.0000
vn -0.0000 -0.0000 1.0000
vn -0.0000 -1.0000 -0.0000
vn -0.0000 1.0000 -0.0000
vt 0.353901 0.318432
vt 0.550069 0.320578
vt 0.550853 0.072385
vt 0.354684 0.070239
vt 0.020144 0.372601
vt 0.021381 0.966717
vt 0.986468 0.964518
vt 0.985232 0.370402
vt 0.942983 0.325119
vt 0.746814 0.322973
vt 0.746031 0.571166
vt 0.942200 0.573312
vt 0.746526 0.322970
vt 0.550357 0.320824
vt 0.549574 0.569017
vt 0.745742 0.571163
vt 0.747598 0.074537
vt 0.746815 0.322730
vt 0.942984 0.324876
vt 0.943767 0.076683
vt 0.746526 0.322727
vt 0.747310 0.074534
vt 0.551141 0.072388
vt 0.550358 0.320581
s 0
usemtl TutorialFont.001
f 1/1/1 3/4/1 4/3/1 2/2/1
f 3/5/2 7/8/2 8/7/2 4/6/2
f 7/9/3 5/12/3 6/11/3 8/10/3
f 5/13/4 1/16/4 2/15/4 6/14/4
f 3/17/5 1/20/5 5/19/5 7/18/5
f 8/21/6 6/24/6 2/23/6 4/22/6
