# Blender 4.4.0
# www.blender.org
mtllib TutorialFont2.mtl
o 立方体.001
v -4.463431 -6.166016 -19.921026
v -4.463431 6.166014 -19.921026
v -4.463431 -6.166016 -21.921026
v -4.463431 6.166014 -21.921026
v -18.318419 -6.166016 -19.921026
v -18.318419 6.166014 -19.921026
v -18.318419 -6.166016 -21.921026
v -18.318419 6.166014 -21.921026
vn 0.5774 -0.5774 0.5774
vn 0.5774 -0.5774 -0.5774
vn 0.5774 0.5774 -0.5774
vn 0.5774 0.5774 0.5774
vn -0.5774 -0.5774 -0.5774
vn -0.5774 0.5774 -0.5774
vn -0.5774 -0.5774 0.5774
vn -0.5774 0.5774 0.5774
vt 0.639850 0.245388
vt 0.640230 0.125015
vt 0.735372 0.126055
vt 0.734991 0.246428
vt 0.020144 0.005779
vt 0.985232 0.003580
vt 0.986468 0.964518
vt 0.021381 0.966717
vt 0.925554 0.248631
vt 0.925174 0.369004
vt 0.830032 0.367963
vt 0.830412 0.247590
vt 0.830272 0.247588
vt 0.829892 0.367961
vt 0.734751 0.366921
vt 0.735131 0.246548
vt 0.830792 0.127099
vt 0.925934 0.128140
vt 0.925554 0.248513
vt 0.830413 0.247472
vt 0.830272 0.247471
vt 0.735131 0.246430
vt 0.735511 0.126057
vt 0.830653 0.127098
s 1
usemtl TutorialFont.002
f 1/1/1 3/2/2 4/3/3 2/4/4
f 3/5/2 7/6/5 8/7/6 4/8/3
f 7/9/5 5/10/7 6/11/8 8/12/6
f 5/13/7 1/14/1 2/15/4 6/16/8
f 3/17/2 1/18/1 5/19/7 7/20/5
f 8/21/6 6/22/8 2/23/4 4/24/3
