# Blender 4.4.0
# www.blender.org
mtllib titleFont.mtl
o 立方体
v 13.734089 6.727962 0.407006
v 15.688153 12.329374 0.407006
v 13.734089 6.727962 -0.407005
v 15.688188 12.329350 -0.407005
v 18.456234 6.727962 0.407006
v 16.502165 12.329374 0.407006
v 18.456234 6.727962 -0.407005
v 16.502165 12.329374 -0.407005
v 15.688153 9.528668 0.407006
v 15.688153 9.528668 -0.407005
v 16.502140 9.528668 -0.407005
v 16.502165 9.528668 0.407006
v 15.688153 10.929022 0.407006
v 15.688188 10.928998 -0.407005
v 16.502165 10.929022 -0.407005
v 16.502165 10.929022 0.407006
v 15.688186 8.128315 -0.407005
v 16.502140 8.128315 -0.407005
v 16.502165 8.128315 0.407006
v 15.688186 8.128315 0.407006
v 15.688153 10.228845 -0.407005
v 16.502165 10.228845 -0.407005
v 16.502165 10.228845 0.407006
v 14.502555 10.228845 0.407006
v 14.502555 10.929022 0.407006
v 14.502555 10.929022 -0.407005
v 14.502555 10.228845 -0.407005
v 13.734089 7.428138 -0.407005
v 18.456234 7.428138 -0.407005
v 18.456234 7.428138 0.407006
v 13.734089 7.428138 0.407006
v 16.502140 6.727962 -0.407005
v 15.688186 6.727962 -0.407005
v 15.688186 6.727962 0.407006
v 16.502140 6.727962 0.407006
v 16.502140 7.428138 0.407006
v 15.688186 7.428138 0.407006
v 15.688186 7.428138 -0.407005
v 16.502140 7.428138 -0.407005
v 15.688153 10.929022 0.407006
v 15.688153 12.329374 0.407006
v 13.734089 7.428138 -0.407005
v 13.734089 6.727962 -0.407005
v 15.688186 6.727962 -0.407005
v 15.688153 12.329374 -0.407005
v 16.502165 12.329374 -0.407005
v 18.456234 7.428138 -0.407005
v 18.456234 6.727962 -0.407005
v 18.456234 7.428138 0.407006
v 18.456234 6.727962 0.407006
v 16.502140 6.727962 0.407006
v 16.502165 12.329374 0.407006
v 15.688186 8.128315 0.407006
v 15.688153 9.528668 0.407006
v 15.688153 9.528668 -0.407005
v 16.502165 10.228845 -0.407005
v 16.502140 9.528668 -0.407005
v 16.502165 10.228845 0.407006
v 16.502165 9.528668 0.407006
v 15.688153 10.929022 -0.407005
v 16.502165 10.929022 -0.407005
v 16.502165 10.929022 0.407006
v 15.688186 8.128315 -0.407005
v 16.502140 8.128315 -0.407005
v 16.502165 8.128315 0.407006
v 15.688186 6.727962 0.407006
v 15.688153 10.228845 0.407006
v 14.502555 10.228845 0.407006
v 14.502555 10.929022 0.407006
v 14.502555 10.929022 -0.407005
v 14.502555 10.228845 -0.407005
v 13.734089 6.727962 0.407006
v 16.502140 6.727962 -0.407005
v 13.734089 7.428138 0.407006
v 15.688186 7.428138 0.407006
v 16.502140 7.428138 -0.407005
v 16.502140 7.428138 0.407006
v 15.688186 7.428138 -0.407005
v 15.688153 10.929022 0.407006
v 15.688153 10.929022 -0.407005
v 15.688153 10.228845 0.407006
v 15.688153 10.228845 -0.407005
v 9.234543 9.763468 -0.407005
v 10.307176 9.837855 -0.407005
v 8.883965 10.816946 -0.407005
v 9.956597 10.891334 -0.407005
v 11.285678 9.905714 -0.407005
v 11.211291 10.978346 -0.407005
v 7.087425 9.614566 -0.407005
v 6.314979 10.827048 0.407005
v 8.022888 9.679440 -0.407005
v 7.948503 10.752072 -0.407005
v 7.257940 7.155790 -0.407005
v 8.193405 7.220665 -0.407005
v 6.754272 10.617998 0.407005
v 8.247268 6.443974 -0.407005
v 8.455204 12.268050 -0.407005
v 9.527835 12.342437 -0.407005
v 10.341765 6.600344 -0.407005
v 11.414396 6.674730 -0.407005
v 5.694294 10.403585 -0.407005
v 5.971715 11.442389 -0.407005
v 4.353559 10.761640 -0.407005
v 4.630981 11.800443 -0.407005
v 4.800470 10.642288 -0.407005
v 5.247381 10.522937 -0.407005
v 5.524803 11.561740 -0.407005
v 5.077892 11.681091 -0.407005
v 6.156346 9.302730 -0.407005
v 7.625988 11.519047 -0.407005
v 7.287076 11.868075 -0.407005
v 5.717053 9.511780 -0.407005
v 8.867193 7.630797 -0.407005
v 8.921056 6.983004 -0.407005
v 8.883965 10.816946 0.407005
v 9.234543 9.763468 0.407005
v 10.307176 9.837855 0.407005
v 9.956597 10.891334 0.407005
v 11.285678 9.905714 0.407005
v 11.211291 10.978346 0.407005
v 6.314979 10.827048 -0.407005
v 7.087425 9.614566 0.407005
v 8.022888 9.679440 0.407005
v 7.948503 10.752072 0.407005
v 7.257940 7.155790 0.407005
v 8.193405 7.220665 0.407005
v 6.754272 10.617998 -0.407005
v 8.247268 6.443974 0.407005
v 9.527835 12.342437 0.407005
v 8.455204 12.268050 0.407005
v 10.341765 6.600344 0.407005
v 11.414396 6.674730 0.407005
v 5.971715 11.442389 0.407005
v 5.694294 10.403585 0.407005
v 4.630981 11.800443 0.407005
v 4.353559 10.761640 0.407005
v 5.247381 10.522937 0.407005
v 5.077892 11.681091 0.407005
v 4.800470 10.642288 0.407005
v 5.524803 11.561740 0.407005
v 7.625988 11.519047 0.407005
v 6.156346 9.302730 0.407005
v 5.717053 9.511780 0.407005
v 7.287076 11.868075 0.407005
v 8.921056 6.983004 0.407005
v 8.867193 7.630797 0.407005
v 7.054247 10.092988 -0.407005
v 7.607249 10.728407 -0.407005
v 7.199147 10.525227 -0.407005
v 7.906014 6.420307 -0.407005
v 7.270596 6.973310 -0.407005
v 7.473774 6.565209 -0.407005
v 7.607249 10.728407 0.407005
v 7.054247 10.092988 0.407005
v 7.199147 10.525227 0.407005
v 7.270596 6.973310 0.407005
v 7.906014 6.420307 0.407005
v 7.473774 6.565209 0.407005
v 11.285678 9.905714 -0.407005
v 11.211291 10.978346 -0.407005
v 9.956597 10.891334 -0.407005
v 10.307176 9.837855 -0.407005
v 8.022888 9.679440 -0.407005
v 9.234543 9.763468 -0.407005
v 8.883965 10.816946 -0.407005
v 7.948503 10.752072 -0.407005
v 8.193405 7.220665 -0.407005
v 7.087425 9.614566 -0.407005
v 7.257940 7.155790 -0.407005
v 9.527835 12.342437 -0.407005
v 8.455204 12.268050 -0.407005
v 10.341765 6.600344 -0.407005
v 11.414396 6.674730 -0.407005
v 5.971715 11.442389 -0.407005
v 5.694294 10.403585 -0.407005
v 4.630981 11.800443 -0.407005
v 4.353559 10.761640 -0.407005
v 5.247381 10.522937 -0.407005
v 5.077892 11.681091 -0.407005
v 4.800470 10.642288 -0.407005
v 5.524803 11.561740 -0.407005
v 6.754272 10.617998 -0.407005
v 6.156346 9.302730 -0.407005
v 5.717053 9.511780 -0.407005
v 7.625988 11.519047 -0.407005
v 7.287076 11.868075 -0.407005
v 6.314979 10.827048 -0.407005
v 8.921056 6.983004 -0.407005
v 8.867193 7.630797 -0.407005
v 8.247268 6.443974 -0.407005
v 11.285678 9.905714 0.407005
v 11.211291 10.978346 0.407005
v 9.956597 10.891334 0.407005
v 10.307176 9.837855 0.407005
v 5.717053 9.511780 0.407005
v 6.314979 10.827048 0.407005
v 8.022888 9.679440 0.407005
v 9.234543 9.763468 0.407005
v 7.625988 11.519047 0.407005
v 6.754272 10.617998 0.407005
v 8.883965 10.816946 0.407005
v 7.948503 10.752072 0.407005
v 8.193405 7.220665 0.407005
v 7.087425 9.614566 0.407005
v 7.257940 7.155790 0.407005
v 9.527835 12.342437 0.407005
v 8.455204 12.268050 0.407005
v 10.341765 6.600344 0.407005
v 11.414396 6.674730 0.407005
v 5.971715 11.442389 0.407005
v 5.694294 10.403585 0.407005
v 4.630981 11.800443 0.407005
v 4.353559 10.761640 0.407005
v 5.247381 10.522937 0.407005
v 5.077892 11.681091 0.407005
v 4.800470 10.642288 0.407005
v 5.524803 11.561740 0.407005
v 6.156346 9.302730 0.407005
v 7.287076 11.868075 0.407005
v 8.921056 6.983004 0.407005
v 8.867193 7.630797 0.407005
v 8.247268 6.443974 0.407005
v 7.199147 10.525227 0.407005
v 7.607249 10.728407 0.407005
v 7.607249 10.728407 -0.407005
v 7.199147 10.525227 -0.407005
v 7.054247 10.092988 0.407005
v 7.054247 10.092988 -0.407005
v 7.473774 6.565209 0.407005
v 7.270596 6.973310 0.407005
v 7.270596 6.973310 -0.407005
v 7.473774 6.565209 -0.407005
v 7.906014 6.420307 0.407005
v 7.906014 6.420307 -0.407005
v 9.527835 12.342437 -0.407005
v 9.527835 12.342437 0.407005
v 7.625988 11.519047 0.407005
v 7.625988 11.519047 -0.407005
v 5.971715 11.442389 -0.407005
v 5.971715 11.442389 0.407005
v 5.077892 11.681091 0.407005
v 5.077892 11.681091 -0.407005
v 2.542805 6.491916 -0.407005
v 3.310352 6.491916 -0.407005
v 2.542805 12.195711 -0.407005
v 3.310352 12.195711 -0.407005
v 2.542805 8.718618 -0.407005
v 3.310352 8.718618 -0.407005
v 3.310352 10.769762 -0.407005
v 2.542805 10.769762 -0.407005
v 2.542805 7.917865 -0.407005
v 3.310352 7.917865 -0.407005
v 2.542805 10.056787 -0.407005
v 3.310352 10.056787 -0.407005
v 4.012155 10.769762 -0.407005
v 4.012155 10.056787 -0.407005
v 3.927656 8.718618 -0.407005
v 2.542805 9.473761 -0.407005
v 3.310352 9.473761 -0.407005
v 2.468098 10.769762 -0.407005
v 2.110162 10.056787 -0.407005
v 1.626534 10.769762 -0.407005
v 3.838086 8.064078 -0.407005
v 4.455389 8.064078 -0.407005
v 2.542805 9.473761 -0.407005
v 0.892373 11.791567 -0.407005
v 1.259454 11.175744 -0.407005
v 2.542805 12.195711 -0.407005
v -0.180865 11.175744 -0.407005
v 0.461448 11.175744 -0.407005
v -0.180865 7.370373 -0.407005
v 3.310352 12.195711 -0.407005
v -0.180865 9.273059 -0.407005
v 0.461448 9.273059 -0.407005
v 0.461448 10.224401 -0.407005
v -0.180865 10.224401 -0.407005
v -0.180865 8.321716 -0.407005
v 0.461448 8.321716 -0.407005
v -0.180865 7.846045 -0.407005
v 0.461448 7.846045 -0.407005
v -0.480544 7.370373 -0.407005
v -0.480544 8.321716 -0.407005
v -0.480544 7.846045 -0.407005
v 3.310352 12.195711 -0.407005
v -1.009159 8.321716 -0.407005
v -1.009159 7.846045 -0.407005
v 2.542805 7.917865 0.407005
v 2.542805 6.491916 0.407005
v 3.310352 6.491916 0.407005
v 3.310352 10.769762 0.407005
v 3.310352 12.195711 0.407005
v 2.542805 12.195711 0.407005
v 2.542805 9.473761 0.407005
v 2.542805 8.718618 0.407005
v 3.310352 7.917865 0.407005
v 3.310352 8.718618 0.407005
v 3.310352 10.056787 0.407005
v 2.542805 10.769762 0.407005
v 2.542805 10.056787 0.407005
v 3.310352 9.473761 0.407005
v 4.012155 10.056787 0.407005
v 4.012155 10.769762 0.407005
v 3.927656 8.718618 0.407005
v 2.468098 10.769762 0.407005
v 2.110162 10.056787 0.407005
v 1.626534 10.769762 0.407005
v 3.838086 8.064078 0.407005
v 4.455389 8.064078 0.407005
v 3.310352 10.769762 -0.407005
v 0.892373 11.791567 0.407005
v 1.259454 11.175744 0.407005
v 3.310352 6.491916 -0.407005
v -0.180865 11.175744 0.407005
v 0.461448 11.175744 0.407005
v -0.180865 7.370373 0.407005
v 2.542805 6.491916 -0.407005
v -0.180865 7.846045 0.407005
v 0.461448 10.224401 0.407005
v -0.180865 10.224401 0.407005
v -0.180865 9.273059 0.407005
v 0.461448 8.321716 0.407005
v 0.461448 9.273059 0.407005
v -0.180865 8.321716 0.407005
v 0.461448 7.846045 0.407005
v -0.480544 7.846045 0.407005
v -0.480544 7.370373 0.407005
v -0.480544 8.321716 0.407005
v -1.009159 7.846045 0.407005
v 2.542805 7.917865 -0.407005
v -1.009159 8.321716 0.407005
v 1.408041 11.791567 -0.407005
v 1.924097 11.526901 -0.407005
v 1.694180 11.714048 -0.407005
v -0.193641 11.465985 -0.407005
v 0.117923 11.791567 -0.407005
v -0.108323 11.696206 -0.407005
v 0.461448 7.696269 -0.407005
v 0.135552 7.370373 -0.407005
v 0.365996 7.465826 -0.407005
v -0.683263 7.370373 -0.407005
v -1.009159 7.696269 -0.407005
v -0.913706 7.465826 -0.407005
v 1.924097 11.526901 0.407005
v 1.408041 11.791567 0.407005
v 1.694180 11.714048 0.407005
v 0.117923 11.791567 0.407005
v -0.193641 11.465985 0.407005
v -0.108323 11.696206 0.407005
v 0.135552 7.370373 0.407005
v 0.461448 7.696269 0.407005
v 0.365996 7.465826 0.407005
v -1.009159 7.696269 0.407005
v -0.683263 7.370373 0.407005
v -0.913706 7.465826 0.407005
v 2.542805 8.718618 -0.407005
v 3.310352 7.917865 -0.407005
v 3.310352 8.718618 -0.407005
v 2.542805 10.769762 -0.407005
v 3.310352 9.473761 -0.407005
v 3.310352 10.056787 -0.407005
v 4.012155 10.056787 -0.407005
v 4.012155 10.769762 -0.407005
v 3.927656 8.718618 -0.407005
v 2.468098 10.769762 -0.407005
v 2.110162 10.056787 -0.407005
v 1.626534 10.769762 -0.407005
v 3.838086 8.064078 -0.407005
v 4.455389 8.064078 -0.407005
v 1.259454 11.175744 -0.407005
v 0.461448 11.175744 -0.407005
v 0.461448 10.224401 -0.407005
v -0.180865 10.224401 -0.407005
v -0.180865 9.273059 -0.407005
v 0.461448 8.321716 -0.407005
v 0.461448 9.273059 -0.407005
v -0.180865 11.175744 -0.407005
v -0.180865 8.321716 -0.407005
v 0.461448 7.846045 -0.407005
v -0.180865 7.846045 -0.407005
v -0.480544 8.321716 -0.407005
v -0.480544 7.846045 -0.407005
v 2.542805 7.917865 0.407005
v 2.542805 6.491916 0.407005
v -0.480544 7.370373 -0.407005
v -0.180865 7.370373 -0.407005
v -1.009159 8.321716 -0.407005
v -1.009159 8.321716 -0.407005
v -1.009159 7.846045 -0.407005
v 3.310352 6.491916 0.407005
v 3.310352 10.769762 0.407005
v 3.310352 12.195711 0.407005
v 3.310352 12.195711 0.407005
v 2.542805 12.195711 0.407005
v 2.542805 9.473761 0.407005
v 2.542805 8.718618 0.407005
v 3.310352 7.917865 0.407005
v 3.310352 8.718618 0.407005
v 2.542805 10.769762 0.407005
v 3.310352 9.473761 0.407005
v 3.310352 10.056787 0.407005
v 4.012155 10.056787 0.407005
v 4.012155 10.769762 0.407005
v 3.927656 8.718618 0.407005
v 2.468098 10.769762 0.407005
v 2.110162 10.056787 0.407005
v 1.626534 10.769762 0.407005
v 3.838086 8.064078 0.407005
v 4.455389 8.064078 0.407005
v 1.259454 11.175744 0.407005
v 0.461448 11.175744 0.407005
v 0.461448 10.224401 0.407005
v -0.180865 10.224401 0.407005
v -0.180865 9.273059 0.407005
v 0.461448 8.321716 0.407005
v 0.461448 9.273059 0.407005
v -0.180865 11.175744 0.407005
v -0.180865 8.321716 0.407005
v 0.461448 7.846045 0.407005
v -0.180865 7.846045 0.407005
v -0.480544 8.321716 0.407005
v -0.480544 7.846045 0.407005
v -0.480544 7.370373 0.407005
v -0.180865 7.370373 0.407005
v -1.009159 8.321716 0.407005
v -1.009159 8.321716 0.407005
v -1.009159 7.846045 0.407005
v 1.694180 11.714048 0.407005
v 1.924097 11.526901 0.407005
v 1.924097 11.526901 -0.407005
v 1.694180 11.714048 -0.407005
v 1.408041 11.791567 0.407005
v 1.408041 11.791567 -0.407005
v -0.913706 7.465826 -0.407005
v -0.683263 7.370373 -0.407005
v -0.683263 7.370373 0.407005
v -0.913706 7.465826 0.407005
v -1.009159 7.696269 -0.407005
v -1.009159 7.696269 0.407005
v -0.108323 11.696206 0.407005
v 0.117923 11.791567 0.407005
v 0.117923 11.791567 -0.407005
v -0.108323 11.696206 -0.407005
v -0.193641 11.465985 0.407005
v -0.193641 11.465985 -0.407005
v 0.365996 7.465826 0.407005
v 0.135552 7.370373 0.407005
v 0.135552 7.370373 -0.407005
v 0.365996 7.465826 -0.407005
v 0.461448 7.696269 0.407005
v 0.461448 7.696269 -0.407005
v 0.892373 11.791567 -0.407005
v 0.892373 11.791567 0.407005
v -7.852308 6.792046 -0.407005
v -2.699303 6.792046 -0.407005
v -7.852308 11.945051 -0.407005
v -2.699303 11.945051 -0.407005
v -6.612635 10.705378 -0.407005
v -6.612635 8.031720 -0.407005
v -3.938977 8.031720 -0.407005
v -3.938977 10.705378 -0.407005
v -6.612637 10.705378 0.407005
v -6.612637 8.031720 0.407005
v -3.938979 8.031720 0.407005
v -3.938979 10.705378 0.407005
v -7.852310 11.945051 0.407005
v -7.852310 6.792046 0.407005
v -2.699305 6.792046 0.407005
v -2.699305 11.945051 0.407005
v -6.612635 10.705378 -0.407005
v -6.612635 8.031720 -0.407005
v -3.938977 8.031720 -0.407005
v -3.938977 10.705378 -0.407005
v -3.938977 10.705378 -0.407005
v -7.852308 11.945051 -0.407005
v -7.852308 6.792046 -0.407005
v -2.699303 6.792046 -0.407005
v -2.699303 11.945051 -0.407005
v -2.699303 11.945051 -0.407005
v -6.612637 10.705378 0.407005
v -6.612637 8.031720 0.407005
v -3.938979 8.031720 0.407005
v -3.938979 10.705378 0.407005
v -3.938979 10.705378 0.407005
v -7.852310 11.945051 0.407005
v -7.852310 6.792046 0.407005
v -2.699305 6.792046 0.407005
v -2.699305 11.945051 0.407005
v -2.699305 11.945051 0.407005
v -14.486999 10.109949 -0.407005
v -9.063868 10.109949 -0.407005
v -14.486999 11.069817 -0.407005
v -9.381357 11.069817 -0.407005
v -12.018424 10.109949 -0.407005
v -12.018424 11.069817 -0.407005
v -10.244852 10.109949 -0.407005
v -10.615645 11.069817 -0.407005
v -13.252711 11.069817 -0.407005
v -13.252711 10.109949 -0.407005
v -9.990809 12.828566 -0.407005
v -11.225098 12.828566 -0.407005
v -8.606880 8.930138 -0.407005
v -9.841167 8.930138 -0.407005
v -11.096924 6.926786 -0.407005
v -12.331212 6.926786 -0.407005
v -14.486999 11.069817 0.407005
v -14.486999 10.109949 0.407005
v -10.244852 10.109949 0.407005
v -9.063868 10.109949 0.407005
v -9.381357 11.069817 0.407005
v -13.252711 11.069817 0.407005
v -13.252711 10.109949 0.407005
v -12.018424 10.109949 0.407005
v -10.615645 11.069817 0.407005
v -12.018424 11.069817 0.407005
v -9.990809 12.828566 0.407005
v -11.225098 12.828566 0.407005
v -9.841167 8.930138 0.407005
v -8.606880 8.930138 0.407005
v -12.331212 6.926786 0.407005
v -11.096924 6.926786 0.407005
v -14.486999 11.069817 -0.407005
v -14.486999 10.109949 -0.407005
v -9.063868 10.109949 -0.407005
v -9.381357 11.069817 -0.407005
v -13.252711 11.069817 -0.407005
v -10.615645 11.069817 -0.407005
v -12.018424 11.069817 -0.407005
v -12.018424 10.109949 -0.407005
v -10.244852 10.109949 -0.407005
v -13.252711 10.109949 -0.407005
v -9.990809 12.828566 -0.407005
v -9.990809 12.828566 -0.407005
v -11.225098 12.828566 -0.407005
v -9.841167 8.930138 -0.407005
v -8.606880 8.930138 -0.407005
v -12.331212 6.926786 -0.407005
v -12.331212 6.926786 -0.407005
v -11.096924 6.926786 -0.407005
v -14.486999 11.069817 0.407005
v -14.486999 10.109949 0.407005
v -9.063868 10.109949 0.407005
v -9.381357 11.069817 0.407005
v -13.252711 11.069817 0.407005
v -10.615645 11.069817 0.407005
v -12.018424 11.069817 0.407005
v -12.018424 10.109949 0.407005
v -10.244852 10.109949 0.407005
v -13.252711 10.109949 0.407005
v -9.990809 12.828566 0.407005
v -9.990809 12.828566 0.407005
v -11.225098 12.828566 0.407005
v -9.841167 8.930138 0.407005
v -8.606880 8.930138 0.407005
v -12.331212 6.926786 0.407005
v -12.331212 6.926786 0.407005
v -11.096924 6.926786 0.407005
v -16.045835 7.819473 -0.407006
v -15.356838 7.819473 -0.407006
v -16.045835 8.691876 -0.407006
v -15.356838 8.691876 -0.407006
v -16.813255 7.468298 -0.407006
v -17.198267 8.251147 -0.407006
v -17.176250 7.289774 -0.407006
v -17.561262 8.072624 -0.407006
v -16.432228 6.693544 -0.407006
v -16.795223 6.515020 -0.407006
v -15.726750 7.819473 -0.407006
v -15.726750 8.691876 -0.407006
v -16.415791 7.819473 -0.407006
v -16.415791 8.691876 -0.407006
v -16.045835 8.691876 0.407005
v -16.045835 7.819473 0.407005
v -15.726750 7.819473 0.407005
v -15.356838 7.819473 0.407005
v -15.356838 8.691876 0.407005
v -17.198267 8.251147 0.407005
v -16.813255 7.468298 0.407005
v -16.415791 7.819473 0.407005
v -17.561262 8.072624 0.407005
v -17.176250 7.289774 0.407005
v -16.795223 6.515020 0.407005
v -16.432228 6.693544 0.407005
v -15.726750 8.691876 0.407005
v -16.415791 8.691876 0.407005
v -16.045835 8.691876 -0.407006
v -16.045835 8.691876 -0.407006
v -16.045835 7.819473 -0.407006
v -15.726750 7.819473 -0.407006
v -15.356838 7.819473 -0.407006
v -15.356838 8.691876 -0.407006
v -15.356838 8.691876 -0.407006
v -17.198267 8.251147 0.407005
v -17.198267 8.251147 0.407005
v -16.813255 7.468298 0.407005
v -17.198267 8.251147 -0.407006
v -17.198267 8.251147 -0.407006
v -16.813255 7.468298 -0.407006
v -16.415791 7.819473 -0.407006
v -15.356838 7.819473 0.407005
v -15.356838 8.691876 0.407005
v -15.356838 8.691876 0.407005
v -17.561262 8.072624 -0.407006
v -17.176250 7.289774 -0.407006
v -16.795223 6.515020 -0.407006
v -16.432228 6.693544 -0.407006
v -15.726750 7.819473 0.407005
v -15.726750 8.691876 -0.407006
v -16.045835 8.691876 0.407005
v -16.045835 8.691876 0.407005
v -16.045835 7.819473 0.407005
v -16.415791 8.691876 -0.407006
v -16.415791 7.819473 0.407005
v -17.561262 8.072624 0.407005
v -17.176250 7.289774 0.407005
v -16.795223 6.515020 0.407005
v -16.432228 6.693544 0.407005
v -15.726750 8.691876 0.407005
v -16.415791 8.691876 0.407005
v -20.951471 6.757121 -0.407006
v -19.693415 6.757121 -0.407006
v -20.951471 12.315063 -0.407006
v -19.693415 12.315063 -0.407006
v -20.951471 10.126495 -0.407006
v -20.951471 8.945689 -0.407006
v -19.693415 8.945689 -0.407006
v -19.693415 10.126495 -0.407006
v -22.681015 9.592686 -0.407006
v -22.681015 8.411880 -0.407006
v -20.951471 8.945689 0.407005
v -20.951471 6.757121 0.407005
v -19.693415 6.757121 0.407005
v -19.693415 10.126495 0.407005
v -19.693415 12.315063 0.407005
v -20.951471 12.315063 0.407005
v -20.951471 10.126495 0.407005
v -19.693415 8.945689 0.407005
v -22.681015 9.592686 0.407005
v -22.681015 8.411880 0.407005
v -20.951471 8.945689 -0.407006
v -20.951471 6.757121 -0.407006
v -19.693415 6.757121 -0.407006
v -19.693415 10.126495 -0.407006
v -19.693415 12.315063 -0.407006
v -19.693415 12.315063 -0.407006
v -20.951471 12.315063 -0.407006
v -20.951471 10.126495 -0.407006
v -19.693415 8.945689 -0.407006
v -22.681015 9.592686 -0.407006
v -22.681015 8.411880 -0.407006
v -20.951471 8.945689 0.407005
v -20.951471 6.757121 0.407005
v -19.693415 6.757121 0.407005
v -19.693415 10.126495 0.407005
v -19.693415 12.315063 0.407005
v -19.693415 12.315063 0.407005
v -20.951471 12.315063 0.407005
v -20.951471 10.126495 0.407005
v -19.693415 8.945689 0.407005
v -22.681015 9.592686 0.407005
v -22.681015 8.411880 0.407005
vn -1.0000 -0.0000 -0.0000
vn -0.0000 -0.0000 -1.0000
vn 1.0000 -0.0000 -0.0000
vn -0.0000 -0.0000 1.0000
vn -0.0000 -1.0000 -0.0000
vn -0.0000 1.0000 -0.0000
vn -0.0692 0.9976 -0.0000
vn -0.9976 -0.0692 -0.0000
vn 0.9103 -0.4138 -0.0000
vn -0.4297 -0.9030 -0.0000
vn 0.9590 0.2834 -0.0000
vn 0.7174 0.6966 -0.0000
vn 0.0692 -0.9976 -0.0000
vn -0.9103 0.4138 -0.0000
vn 0.9438 0.3304 -0.0000
vn 0.9966 0.0829 -0.0000
vn -0.9438 -0.3304 -0.0000
vn -0.5199 0.8542 -0.0000
vn 0.9661 -0.2580 -0.0000
vn 0.6247 -0.7809 -0.0000
vn -0.9661 0.2580 -0.0000
vn -0.2580 -0.9661 -0.0000
vn 0.2580 0.9661 -0.0000
vn 0.9976 0.0692 -0.0000
vn 0.7187 -0.6953 -0.0000
vn -0.9590 -0.2834 -0.0000
vn -0.4457 0.8952 -0.0000
vn -0.9481 0.3178 -0.0000
vn -0.8952 -0.4457 -0.0000
vn -0.3179 -0.9481 -0.0000
vn -0.7309 0.6825 -0.0000
vn 0.8121 0.5835 -0.0000
vn 0.7785 0.6277 -0.0000
vn 0.7742 0.6329 -0.0000
vn -0.9990 -0.0440 -0.0000
vn -0.7418 -0.6707 -0.0000
vn -0.8030 -0.5959 -0.0000
vn -0.8276 -0.5614 -0.0000
vn -0.7785 -0.6277 -0.0000
vn 0.6313 0.7756 -0.0000
vn 0.2615 0.9652 -0.0000
vn -0.3827 -0.9239 -0.0000
vn -0.9239 -0.3827 -0.0000
vn -0.3884 0.9215 -0.0000
vn -0.9377 0.3475 -0.0000
vn 0.3827 -0.9239 -0.0000
vn 0.9239 -0.3827 -0.0000
vn 0.9494 0.3140 -0.0000
vn 0.9325 0.3612 -0.0000
vn -0.9461 -0.3237 -0.0000
vn 0.9606 0.2781 -0.0000
vn -0.9606 -0.2781 -0.0000
vn -0.9449 -0.3274 -0.0000
vn 0.9449 0.3274 -0.0000
vn 0.8973 0.4413 -0.0000
vn -0.8973 -0.4413 -0.0000
vn -0.4413 0.8973 -0.0000
vn 0.4413 -0.8973 -0.0000
vn -0.2949 0.9555 -0.0000
vn 0.2949 -0.9555 -0.0000
vt 0.028997 0.959884
vt 0.039607 0.978136
vt 0.028997 0.978136
vt 0.201576 0.964356
vt 0.165540 0.902360
vt 0.201576 0.902359
vt 0.039607 0.949274
vt 0.028997 0.931022
vt 0.039607 0.931022
vt 0.165540 0.964357
vt 0.201578 0.902360
vt 0.165540 0.902360
vt 0.039607 0.850795
vt 0.028997 0.825325
vt 0.039607 0.825325
vt 0.039607 0.959884
vt 0.028997 0.949274
vt 0.165540 0.840363
vt 0.201576 0.778366
vt 0.165540 0.778366
vt 0.039607 0.912769
vt 0.028997 0.894517
vt 0.039607 0.894517
vt 0.201576 0.778366
vt 0.165541 0.840363
vt 0.165541 0.778366
vt 0.028997 0.727272
vt 0.039607 0.745525
vt 0.028997 0.745525
vt 0.201578 0.871361
vt 0.165540 0.871361
vt 0.028997 0.921896
vt 0.039607 0.921896
vt 0.165540 0.871362
vt 0.201578 0.871362
vt 0.254067 0.871361
vt 0.288089 0.747368
vt 0.201576 0.716369
vt 0.288089 0.716369
vt 0.079028 0.747368
vt 0.165541 0.716369
vt 0.079028 0.716369
vt 0.039607 0.754651
vt 0.028997 0.780121
vt 0.028997 0.754651
vt 0.201576 0.747368
vt 0.165541 0.716369
vt 0.028997 0.718146
vt 0.039606 0.727272
vt 0.201578 0.840363
vt 0.028997 0.912769
vt 0.201578 0.840363
vt 0.028997 0.693567
vt 0.039607 0.702693
vt 0.028997 0.702693
vt 0.039606 0.718146
vt 0.039606 0.678114
vt 0.028997 0.678114
vt 0.254067 0.902360
vt 0.201576 0.747367
vt 0.288089 0.716369
vt 0.201576 0.716369
vt 0.039607 0.859921
vt 0.028997 0.850795
vt 0.165541 0.747368
vt 0.079028 0.716369
vt 0.039607 0.789247
vt 0.028997 0.789247
vt 0.165541 0.747367
vt 0.028997 0.885391
vt 0.028997 0.859921
vt 0.039607 0.814716
vt 0.028997 0.814716
vt 0.465637 0.831906
vt 0.434104 0.874374
vt 0.423169 0.831907
vt 0.384429 0.874374
vt 0.334185 0.939787
vt 0.343096 0.943531
vt 0.334185 0.943531
vt 0.513608 0.831906
vt 0.476571 0.874374
vt 0.550645 0.734559
vt 0.550645 0.831906
vt 0.165540 0.964357
vt 0.201578 0.964357
vt 0.254067 0.902360
vt 0.039607 0.780121
vt 0.039606 0.693567
vt 0.254067 0.871361
vt 0.288089 0.747367
vt 0.079028 0.747368
vt 0.039607 0.885391
vt 0.334185 0.895574
vt 0.343096 0.897576
vt 0.334185 0.897576
vt 0.447033 0.932722
vt 0.430653 0.704247
vt 0.624927 0.870379
vt 0.651597 0.932371
vt 0.624927 0.932371
vt 0.650002 0.799883
vt 0.625222 0.857484
vt 0.650002 0.857484
vt 0.577189 0.903404
vt 0.606753 0.860103
vt 0.593308 0.908214
vt 0.513608 0.734559
vt 0.485586 0.723207
vt 0.513608 0.703809
vt 0.465637 0.831907
vt 0.476572 0.874374
vt 0.543754 0.710699
vt 0.527119 0.703809
vt 0.513608 0.734559
vt 0.513608 0.831907
vt 0.591153 0.733937
vt 0.607987 0.763816
vt 0.591153 0.763816
vt 0.447033 0.932722
vt 0.489500 0.932722
vt 0.388186 0.704247
vt 0.624927 0.870379
vt 0.651597 0.870379
vt 0.625222 0.857484
vt 0.625222 0.799883
vt 0.485939 0.748878
vt 0.591153 0.773877
vt 0.607987 0.773877
vt 0.334185 0.708730
vt 0.343096 0.694963
vt 0.343096 0.708730
vt 0.334185 0.678399
vt 0.334185 0.694963
vt 0.591153 0.833212
vt 0.607987 0.843273
vt 0.591153 0.843273
vt 0.334185 0.720500
vt 0.343096 0.731237
vt 0.334185 0.731237
vt 0.334185 0.767923
vt 0.343096 0.779692
vt 0.334185 0.779692
vt 0.607987 0.803756
vt 0.591153 0.803756
vt 0.543754 0.867483
vt 0.527119 0.874374
vt 0.343096 0.767923
vt 0.334185 0.865288
vt 0.343096 0.872403
vt 0.334185 0.872403
vt 0.334185 0.816378
vt 0.343096 0.829673
vt 0.334185 0.829673
vt 0.343096 0.816378
vt 0.334185 0.856653
vt 0.343096 0.865288
vt 0.334185 0.881849
vt 0.343096 0.885593
vt 0.334185 0.885593
vt 0.626692 0.787264
vt 0.659002 0.744586
vt 0.626692 0.744586
vt 0.343096 0.881849
vt 0.626692 0.726225
vt 0.659002 0.683547
vt 0.626692 0.683547
vt 0.343096 0.953796
vt 0.334185 0.953796
vt 0.626692 0.726225
vt 0.659002 0.726225
vt 0.659002 0.665186
vt 0.626692 0.665186
vt 0.659002 0.726225
vt 0.543754 0.710699
vt 0.550645 0.727335
vt 0.343096 0.856653
vt 0.626692 0.683547
vt 0.659002 0.665186
vt 0.626692 0.665186
vt 0.343096 0.924556
vt 0.334185 0.924556
vt 0.659002 0.683547
vt 0.543754 0.867483
vt 0.550645 0.850848
vt 0.626692 0.744586
vt 0.334185 0.970360
vt 0.343096 0.982129
vt 0.334185 0.982129
vt 0.591153 0.708009
vt 0.607987 0.733937
vt 0.343096 0.720500
vt 0.343096 0.970360
vt 0.343096 0.934796
vt 0.343096 0.939787
vt 0.334185 0.934796
vt 0.343096 0.929806
vt 0.343096 0.890584
vt 0.343096 0.895574
vt 0.334185 0.890584
vt 0.334185 0.929806
vt 0.607987 0.833212
vt 0.565623 0.948941
vt 0.552191 0.938816
vt 0.565623 0.948941
vt 0.384429 0.831907
vt 0.513608 0.874374
vt 0.388186 0.704247
vt 0.651597 0.870379
vt 0.625222 0.799883
vt 0.590635 0.855293
vt 0.513608 0.703809
vt 0.550645 0.831907
vt 0.624927 0.932371
vt 0.650002 0.857484
vt 0.343096 0.678399
vt 0.659002 0.787264
vt 0.527119 0.703809
vt 0.527119 0.874374
vt 0.607987 0.708009
vt 0.839466 0.945235
vt 0.806943 0.884814
vt 0.839466 0.884814
vt 0.839466 0.797902
vt 0.806943 0.763973
vt 0.839466 0.763973
vt 0.806943 0.854604
vt 0.839466 0.854604
vt 0.806943 0.703552
vt 0.839466 0.703552
vt 0.806943 0.829899
vt 0.839466 0.829899
vt 0.777206 0.884814
vt 0.780787 0.797902
vt 0.806943 0.797902
vt 0.842631 0.884814
vt 0.857798 0.854604
vt 0.878290 0.884814
vt 0.784582 0.770168
vt 0.729215 0.882569
vt 0.747035 0.902978
vt 0.729215 0.902978
vt 0.729215 0.841347
vt 0.747035 0.858301
vt 0.729215 0.858301
vt 0.708012 0.691897
vt 0.696175 0.689719
vt 0.708012 0.689719
vt 0.927658 0.821395
vt 0.954874 0.861706
vt 0.927658 0.861706
vt 0.954874 0.902016
vt 0.927658 0.902016
vt 0.927658 0.781085
vt 0.954874 0.821395
vt 0.927658 0.760929
vt 0.954874 0.781085
vt 0.967572 0.740774
vt 0.954874 0.760929
vt 0.954874 0.740774
vt 0.989971 0.760929
vt 0.967572 0.781085
vt 0.967572 0.760929
vt 0.708012 0.673504
vt 0.696175 0.670556
vt 0.708012 0.670556
vt 0.758425 0.770168
vt 0.955415 0.914314
vt 0.941467 0.740774
vt 0.927658 0.754583
vt 0.985926 0.744819
vt 0.976161 0.740774
vt 0.806943 0.945235
vt 0.708012 0.869880
vt 0.696175 0.858235
vt 0.708012 0.858235
vt 0.708012 0.903313
vt 0.696175 0.891085
vt 0.708012 0.891085
vt 0.708012 0.917497
vt 0.696175 0.903313
vt 0.875424 0.924825
vt 0.865682 0.916896
vt 0.893844 0.902016
vt 0.708012 0.677862
vt 0.696175 0.673504
vt 0.708012 0.726485
vt 0.696175 0.712649
vt 0.708012 0.712649
vt 0.729215 0.824238
vt 0.747035 0.830598
vt 0.729215 0.830598
vt 0.989971 0.754583
vt 0.729215 0.803412
vt 0.747035 0.824238
vt 0.729215 0.904614
vt 0.747035 0.935830
vt 0.729215 0.935830
vt 0.708012 0.759884
vt 0.696175 0.751925
vt 0.708012 0.751925
vt 0.708012 0.661123
vt 0.696175 0.654205
vt 0.708012 0.654205
vt 0.729215 0.761760
vt 0.747035 0.782586
vt 0.729215 0.782586
vt 0.708012 0.805599
vt 0.696175 0.793954
vt 0.708012 0.793954
vt 0.942214 0.928110
vt 0.729215 0.722802
vt 0.747035 0.734374
vt 0.729215 0.734374
vt 0.708012 0.698814
vt 0.696175 0.691897
vt 0.696175 0.837498
vt 0.708012 0.837498
vt 0.708012 0.682464
vt 0.696175 0.677862
vt 0.887548 0.928110
vt 0.909398 0.928110
vt 0.747035 0.904614
vt 0.696175 0.740320
vt 0.708012 0.740320
vt 0.729215 0.751347
vt 0.747035 0.761760
vt 0.708012 0.826336
vt 0.696175 0.805599
vt 0.708012 0.782972
vt 0.696175 0.772413
vt 0.708012 0.772413
vt 0.708012 0.663301
vt 0.696175 0.661123
vt 0.708012 0.925976
vt 0.696175 0.917497
vt 0.696175 0.826336
vt 0.708012 0.977494
vt 0.696175 0.956757
vt 0.708012 0.956757
vt 0.696175 0.759884
vt 0.708012 0.946550
vt 0.696175 0.936182
vt 0.708012 0.936182
vt 0.696175 0.726485
vt 0.747035 0.952632
vt 0.729215 0.952632
vt 0.696175 0.882108
vt 0.708012 0.882108
vt 0.747035 0.744787
vt 0.729215 0.744787
vt 0.696175 0.946550
vt 0.747035 0.803412
vt 0.696175 0.782972
vt 0.696175 0.869880
vt 0.747035 0.751347
vt 0.696175 0.925976
vt 0.696175 0.698814
vt 0.747035 0.876079
vt 0.747035 0.882569
vt 0.729215 0.876079
vt 0.747035 0.869590
vt 0.708012 0.666929
vt 0.696175 0.666929
vt 0.747035 0.835973
vt 0.747035 0.841347
vt 0.729215 0.835973
vt 0.696175 0.686091
vt 0.696175 0.682464
vt 0.708012 0.686091
vt 0.729215 0.869590
vt 0.777206 0.854604
vt 0.989971 0.781085
vt 0.951800 0.924069
vt 0.931702 0.744819
vt 0.747035 0.722802
vt 0.696175 0.663301
vt 0.696175 0.977494
vt 0.094291 0.398130
vt 0.155240 0.590528
vt 0.155240 0.459078
vt 0.347638 0.398130
vt 0.286690 0.459078
vt 0.347638 0.651477
vt 0.286690 0.590528
vt 0.094291 0.651477
vt 0.013603 0.578193
vt 0.025955 0.656386
vt 0.013603 0.656386
vt 0.013603 0.500000
vt 0.025955 0.421807
vt 0.025955 0.500000
vt 0.068281 0.565557
vt 0.047293 0.634491
vt 0.047293 0.565557
vt 0.068281 0.496623
vt 0.047294 0.427689
vt 0.068281 0.427689
vt 0.013603 0.343614
vt 0.013603 0.421807
vt 0.025955 0.578193
vt 0.047293 0.358756
vt 0.068281 0.358756
vt 0.047293 0.496623
vt 0.068281 0.634491
vt 0.025955 0.343614
vt 0.523038 0.538765
vt 0.490991 0.574389
vt 0.479208 0.538765
vt 0.634670 0.574389
vt 0.588861 0.538765
vt 0.634670 0.538765
vt 0.536800 0.574389
vt 0.680478 0.574389
vt 0.680478 0.538765
vt 0.513610 0.639662
vt 0.508056 0.494978
vt 0.600470 0.420628
vt 0.588861 0.574389
vt 0.559418 0.639662
vt 0.462248 0.494978
vt 0.554661 0.420628
vt 0.398412 0.576953
vt 0.379483 0.548252
vt 0.398412 0.548252
vt 0.398412 0.629884
vt 0.379483 0.606374
vt 0.398412 0.606374
vt 0.379483 0.576953
vt 0.416283 0.532111
vt 0.435211 0.560813
vt 0.416283 0.560813
vt 0.416283 0.503410
vt 0.435211 0.532111
vt 0.379483 0.519255
vt 0.398412 0.519255
vt 0.416283 0.452388
vt 0.435211 0.481090
vt 0.416283 0.481090
vt 0.398412 0.400955
vt 0.379483 0.372253
vt 0.398412 0.372253
vt 0.435211 0.593432
vt 0.416283 0.593432
vt 0.398412 0.478014
vt 0.379483 0.400955
vt 0.416283 0.636715
vt 0.435211 0.665417
vt 0.416283 0.665417
vt 0.416283 0.375329
vt 0.435211 0.452388
vt 0.435211 0.636715
vt 0.379483 0.478014
vt 0.435211 0.503410
vt 0.398412 0.673167
vt 0.379483 0.629884
vt 0.435211 0.375329
vt 0.379483 0.673167
vt 0.781094 0.624787
vt 0.824678 0.537618
vt 0.781094 0.537618
vt 0.893012 0.542066
vt 0.936582 0.636030
vt 0.936581 0.542066
vt 0.936581 0.542066
vt 0.893012 0.636030
vt 0.893012 0.542066
vt 0.893012 0.449074
vt 0.880623 0.538561
vt 0.836245 0.625113
vt 0.836245 0.538561
vt 0.893012 0.449074
vt 0.987226 0.597369
vt 0.950651 0.558576
vt 0.987226 0.558576
vt 0.987226 0.636569
vt 0.950651 0.597369
vt 0.987226 0.540399
vt 0.950651 0.501606
vt 0.987226 0.501606
vt 0.763313 0.588872
vt 0.727505 0.572597
vt 0.763313 0.572597
vt 0.763313 0.534219
vt 0.727505 0.517946
vt 0.763313 0.517946
vt 0.950651 0.462406
vt 0.987226 0.462406
vt 0.763313 0.627249
vt 0.727505 0.588872
vt 0.763313 0.572596
vt 0.727505 0.534219
vt 0.763313 0.588868
vt 0.727505 0.572596
vt 0.950651 0.444230
vt 0.987226 0.444230
vt 0.763313 0.627245
vt 0.727505 0.588868
vt 0.763314 0.534221
vt 0.727505 0.517946
vt 0.763314 0.517946
vt 0.950651 0.540399
vt 0.727505 0.534221
vt 0.824678 0.624787
vt 0.893012 0.636030
vt 0.936582 0.636030
vt 0.936582 0.449074
vt 0.880623 0.625113
vt 0.936581 0.449074
vt 0.950651 0.636569
vt 0.727505 0.627249
vt 0.727505 0.627245
vt 0.268334 0.312015
vt 0.206123 0.203790
vt 0.268334 0.203790
vt 0.268334 0.145399
vt 0.206123 0.037173
vt 0.268334 0.037173
vt 0.206123 0.145399
vt 0.353860 0.177393
vt 0.206123 0.203790
vt 0.268334 0.312015
vt 0.268334 0.203790
vt 0.206123 0.037173
vt 0.268334 0.145399
vt 0.268334 0.037173
vt 0.206123 0.145399
vt 0.353860 0.177393
vt 0.353860 0.119002
vt 0.490058 0.110890
vt 0.477500 0.082964
vt 0.490058 0.082964
vt 0.490058 0.295956
vt 0.477500 0.262191
vt 0.490058 0.262191
vt 0.490058 0.243973
vt 0.477500 0.210208
vt 0.490058 0.210208
vt 0.490058 0.049198
vt 0.477500 0.029789
vt 0.490058 0.029789
vt 0.490058 0.129107
vt 0.477500 0.110890
vt 0.490058 0.190798
vt 0.477500 0.157033
vt 0.490058 0.157033
vt 0.477500 0.243973
vt 0.477500 0.049198
vt 0.477500 0.129107
vt 0.477500 0.190798
vt 0.206123 0.312015
vt 0.353860 0.119002
vt 0.206123 0.312015
vt 0.477500 0.295956
s 0
usemtl マテリアル
f 41/1/1 80/2/1 79/3/1
f 4/4/2 61/5/2 14/6/2
f 8/7/3 62/8/3 15/9/3
f 6/10/4 13/11/4 16/12/4
f 48/13/5 51/14/5 32/15/5
f 45/16/6 52/17/6 8/7/6
f 12/18/4 53/19/4 65/20/4
f 11/21/3 19/22/3 64/23/3
f 63/24/2 57/25/2 18/26/2
f 9/27/1 17/28/1 20/29/1
f 16/12/4 67/30/4 23/31/4
f 15/9/3 58/32/3 22/33/3
f 14/6/2 56/34/2 21/35/2
f 13/11/4 68/36/4 67/30/4
f 42/37/2 44/38/2 3/39/2
f 49/40/4 35/41/4 5/42/4
f 38/43/6 31/44/6 75/45/6
f 78/46/2 73/47/2 44/38/2
f 81/48/1 55/49/1 9/27/1
f 21/35/2 57/25/2 10/50/2
f 22/33/3 59/51/3 11/21/3
f 12/18/4 67/30/4 54/52/4
f 25/53/1 71/54/1 24/55/1
f 81/48/5 71/54/5 82/56/5
f 60/57/6 25/53/6 40/58/6
f 21/35/2 26/59/2 14/6/2
f 37/60/4 1/61/4 66/62/4
f 47/63/3 50/64/3 48/13/3
f 76/65/2 7/66/2 73/47/2
f 31/44/1 43/67/1 72/68/1
f 77/69/4 66/62/4 35/41/4
f 47/63/6 36/70/6 30/71/6
f 53/19/4 77/69/4 65/20/4
f 33/72/5 72/68/5 43/67/5
f 32/15/5 34/73/5 33/72/5
f 20/29/1 38/43/1 75/45/1
f 36/70/3 64/23/3 19/22/3
f 76/65/2 63/24/2 18/26/2
f 164/74/2 161/75/2 162/76/2
f 88/77/2 162/76/2 161/75/2
f 225/78/7 124/79/7 166/80/7
f 163/81/2 165/82/2 164/74/2
f 163/81/2 169/83/2 168/84/2
f 41/1/1 45/16/1 80/2/1
f 4/4/2 46/85/2 61/5/2
f 8/7/3 52/17/3 62/8/3
f 6/10/4 2/86/4 13/11/4
f 48/13/5 50/64/5 51/14/5
f 45/16/6 41/1/6 52/17/6
f 12/18/4 54/52/4 53/19/4
f 11/21/3 59/51/3 19/22/3
f 63/24/2 10/50/2 57/25/2
f 9/27/1 55/49/1 17/28/1
f 16/12/4 13/11/4 67/30/4
f 15/9/3 62/8/3 58/32/3
f 14/6/2 61/5/2 56/34/2
f 13/11/4 69/87/4 68/36/4
f 42/37/2 78/46/2 44/38/2
f 49/40/4 77/69/4 35/41/4
f 38/43/6 28/88/6 31/44/6
f 78/46/2 76/65/2 73/47/2
f 81/48/1 82/56/1 55/49/1
f 21/35/2 56/34/2 57/25/2
f 22/33/3 58/32/3 59/51/3
f 12/18/4 23/31/4 67/30/4
f 25/53/1 70/89/1 71/54/1
f 81/48/5 24/55/5 71/54/5
f 60/57/6 70/89/6 25/53/6
f 21/35/2 27/90/2 26/59/2
f 37/60/4 74/91/4 1/61/4
f 47/63/3 30/71/3 50/64/3
f 76/65/2 29/92/2 7/66/2
f 31/44/1 28/88/1 43/67/1
f 77/69/4 37/60/4 66/62/4
f 47/63/6 39/93/6 36/70/6
f 53/19/4 37/60/4 77/69/4
f 33/72/5 34/73/5 72/68/5
f 32/15/5 51/14/5 34/73/5
f 20/29/1 17/28/1 38/43/1
f 36/70/3 39/93/3 64/23/3
f 76/65/2 78/46/2 63/24/2
f 231/94/8 125/95/8 93/96/8
f 165/82/2 98/97/2 161/75/2
f 162/76/2 99/98/2 164/74/2
f 180/99/2 104/100/2 179/101/2
f 175/102/2 181/103/2 174/104/2
f 127/105/2 184/106/2 121/107/2
f 167/108/2 114/109/2 190/110/2
f 198/111/4 193/75/4 201/112/4
f 194/76/4 192/77/4 193/75/4
f 158/113/4 233/114/4 203/115/4
f 201/112/4 197/116/4 198/111/4
f 197/116/4 205/83/4 203/115/4
f 182/117/9 218/118/9 183/119/9
f 201/112/4 206/120/4 207/121/4
f 194/76/4 208/98/4 209/122/4
f 216/123/4 212/100/4 213/124/4
f 211/102/4 217/125/4 214/126/4
f 195/106/4 200/105/4 196/107/4
f 203/115/4 220/109/4 221/127/4
f 112/128/10 218/118/10 143/129/10
f 160/130/7 118/131/7 120/132/7
f 235/133/11 118/131/11 86/134/11
f 186/135/12 237/136/12 185/137/12
f 159/138/13 117/139/13 84/140/13
f 173/141/13 131/142/13 172/143/13
f 112/128/14 90/144/14 187/145/14
f 226/146/2 148/147/2 163/81/2
f 84/140/15 132/148/15 173/141/15
f 189/149/16 145/150/16 188/151/16
f 83/152/13 123/153/13 91/154/13
f 172/143/17 116/155/17 83/152/17
f 94/156/18 146/157/18 189/149/18
f 96/158/13 157/159/13 150/160/13
f 102/161/19 134/162/19 101/163/19
f 96/158/20 145/150/20 128/164/20
f 177/165/21 135/166/21 176/167/21
f 166/80/7 115/168/7 85/169/7
f 106/170/22 134/162/22 137/171/22
f 176/167/23 241/172/23 242/173/23
f 177/165/22 139/162/22 136/174/22
f 232/175/2 151/176/2 167/108/2
f 91/154/24 126/177/24 94/156/24
f 107/178/23 240/179/23 239/180/23
f 93/96/8 122/181/8 89/182/8
f 106/170/21 140/183/21 107/178/21
f 155/184/4 227/185/4 197/116/4
f 108/161/19 139/162/19 105/186/19
f 171/187/7 236/188/7 170/189/7
f 238/190/25 95/191/25 182/117/25
f 160/130/24 119/192/24 159/138/24
f 85/169/26 130/193/26 171/187/26
f 225/78/27 223/194/27 224/195/27
f 149/196/28 154/197/28 223/194/28
f 231/94/29 229/198/29 230/199/29
f 152/200/30 157/159/30 229/198/30
f 89/182/8 154/197/8 147/201/8
f 187/145/31 144/202/31 186/135/31
f 219/203/4 200/105/4 199/204/4
f 111/205/2 127/105/2 121/107/2
f 164/74/2 165/82/2 161/75/2
f 88/77/2 87/206/2 162/76/2
f 225/78/7 224/195/7 124/79/7
f 163/81/2 92/207/2 165/82/2
f 163/81/2 167/108/2 169/83/2
f 231/94/8 230/199/8 125/95/8
f 165/82/2 97/121/2 98/97/2
f 162/76/2 100/208/2 99/98/2
f 180/99/2 103/209/2 104/100/2
f 175/102/2 178/210/2 181/103/2
f 127/105/2 109/211/2 184/106/2
f 167/108/2 113/127/2 114/109/2
f 198/111/4 194/76/4 193/75/4
f 194/76/4 191/206/4 192/77/4
f 222/212/4 203/115/4 233/114/4
f 203/115/4 205/83/4 156/176/4
f 158/113/4 203/115/4 156/176/4
f 201/112/4 202/207/4 197/116/4
f 197/116/4 204/213/4 205/83/4
f 182/117/9 95/191/9 218/118/9
f 201/112/4 193/75/4 206/120/4
f 194/76/4 198/111/4 208/98/4
f 216/123/4 215/214/4 212/100/4
f 211/102/4 210/215/4 217/125/4
f 195/106/4 142/211/4 200/105/4
f 203/115/4 222/212/4 220/109/4
f 112/128/10 183/119/10 218/118/10
f 160/130/7 86/134/7 118/131/7
f 235/133/11 129/216/11 118/131/11
f 186/135/12 144/202/12 237/136/12
f 159/138/13 119/192/13 117/139/13
f 173/141/13 132/148/13 131/142/13
f 112/128/14 143/129/14 90/144/14
f 92/207/2 163/81/2 148/147/2
f 163/81/2 168/84/2 228/185/2
f 226/146/2 163/81/2 228/185/2
f 84/140/15 117/139/15 132/148/15
f 189/149/16 146/157/16 145/150/16
f 83/152/13 116/155/13 123/153/13
f 172/143/17 131/142/17 116/155/17
f 94/156/18 126/177/18 146/157/18
f 96/158/13 128/164/13 157/159/13
f 102/161/19 133/217/19 134/162/19
f 96/158/20 188/151/20 145/150/20
f 177/165/21 136/174/21 135/166/21
f 166/80/7 124/79/7 115/168/7
f 106/170/22 101/163/22 134/162/22
f 176/167/23 135/166/23 241/172/23
f 177/165/22 105/186/22 139/162/22
f 169/83/2 167/108/2 151/176/2
f 167/108/2 190/110/2 234/218/2
f 232/175/2 167/108/2 234/218/2
f 91/154/24 123/153/24 126/177/24
f 107/178/23 140/183/23 240/179/23
f 93/96/8 125/95/8 122/181/8
f 106/170/21 137/171/21 140/183/21
f 204/213/4 197/116/4 227/185/4
f 197/116/4 202/207/4 153/219/4
f 155/184/4 197/116/4 153/219/4
f 108/161/19 138/217/19 139/162/19
f 171/187/7 130/193/7 236/188/7
f 238/190/25 141/220/25 95/191/25
f 160/130/24 120/132/24 119/192/24
f 85/169/26 115/168/26 130/193/26
f 225/78/27 149/196/27 223/194/27
f 149/196/28 147/201/28 154/197/28
f 231/94/29 152/200/29 229/198/29
f 152/200/30 150/160/30 157/159/30
f 89/182/8 122/181/8 154/197/8
f 187/145/31 90/144/31 144/202/31
f 219/203/4 196/107/4 200/105/4
f 111/205/2 110/204/2 127/105/2
f 268/221/2 309/222/2 358/223/2
f 355/224/2 356/225/2 329/226/2
f 358/223/2 360/227/2 253/228/2
f 329/226/2 312/229/2 316/230/2
f 253/228/2 359/231/2 265/232/2
f 362/233/2 360/227/2 309/222/2
f 363/234/2 357/235/2 359/231/2
f 265/232/2 357/235/2 355/224/2
f 253/228/2 364/236/2 358/223/2
f 365/237/2 366/238/2 364/236/2
f 253/228/2 265/232/2 365/237/2
f 363/234/2 367/239/2 357/235/2
f 429/240/32 304/241/32 260/242/32
f 441/243/6 310/244/6 266/245/6
f 280/246/3 350/247/3 337/248/3
f 375/249/2 372/250/2 371/251/2
f 371/251/2 376/252/2 370/253/2
f 374/254/2 373/255/2 375/249/2
f 378/256/2 377/257/2 374/254/2
f 390/222/4 393/221/4 398/223/4
f 384/258/2 379/259/2 385/260/2
f 388/261/2 380/262/2 381/263/2
f 281/264/5 435/265/5 340/266/5
f 396/225/4 395/224/4 382/226/4
f 400/227/4 398/223/4 299/228/4
f 389/229/4 382/226/4 383/230/4
f 399/231/4 299/228/4 394/232/4
f 400/227/4 402/233/4 390/222/4
f 403/234/4 399/231/4 397/235/4
f 397/235/4 394/232/4 395/224/4
f 299/228/4 404/236/4 405/237/4
f 405/237/4 404/236/4 406/238/4
f 299/228/4 405/237/4 394/232/4
f 403/234/4 407/239/4 408/267/4
f 443/268/4 416/252/4 410/253/4
f 419/259/4 446/269/4 449/270/4
f 436/271/4 353/272/4 421/263/4
f 412/250/4 415/249/4 411/251/4
f 416/252/4 411/251/4 410/253/4
f 413/255/4 414/254/4 415/249/4
f 417/257/4 418/256/4 414/254/4
f 419/259/4 422/258/4 423/260/4
f 420/262/4 426/261/4 421/263/4
f 268/221/2 284/273/2 309/222/2
f 248/274/3 295/275/3 252/276/3
f 257/277/33 308/278/33 264/279/33
f 259/280/34 303/281/34 257/277/34
f 430/282/2 332/283/2 369/284/2
f 271/285/5 326/286/5 281/264/5
f 275/287/3 322/288/3 274/289/3
f 269/290/35 347/291/35 334/292/35
f 437/293/2 388/261/2 381/263/2
f 276/294/1 313/295/1 269/290/1
f 250/296/1 292/297/1 245/298/1
f 262/299/36 409/300/36 267/301/36
f 286/302/1 425/303/1 387/304/1
f 277/305/1 320/306/1 273/307/1
f 251/308/1 294/309/1 247/310/1
f 370/253/2 444/268/2 335/311/2
f 285/312/6 327/313/6 282/314/6
f 278/315/3 324/316/3 280/246/3
f 252/276/3 289/317/3 244/318/3
f 447/319/5 315/320/5 271/285/5
f 431/321/4 452/322/4 311/284/4
f 260/242/6 298/323/6 250/296/6
f 267/301/5 314/324/5 270/325/5
f 279/326/1 323/327/1 277/305/1
f 243/328/1 287/329/1 251/308/1
f 258/330/37 305/331/37 261/332/37
f 341/333/1 328/334/1 286/302/1
f 254/335/3 300/336/3 259/280/3
f 450/270/2 338/269/2 379/259/2
f 244/318/5 288/337/5 243/328/5
f 272/338/3 290/339/3 249/340/3
f 261/332/38 306/341/38 262/299/38
f 255/342/3 301/343/3 256/344/3
f 270/325/3 318/345/3 275/287/3
f 245/298/6 291/346/6 246/347/6
f 264/279/5 307/348/5 263/349/5
f 282/314/3 325/350/3 283/351/3
f 249/340/6 302/352/6 255/342/6
f 273/307/1 319/353/1 276/294/1
f 247/310/1 293/354/1 258/330/1
f 263/349/39 296/355/39 248/274/39
f 283/351/6 317/356/6 279/326/6
f 256/344/5 297/357/5 254/335/5
f 274/289/3 321/358/3 278/315/3
f 429/240/40 345/359/40 343/360/40
f 333/361/41 344/362/41 345/359/41
f 435/265/42 342/363/42 340/266/42
f 354/364/43 341/333/43 342/363/43
f 441/243/44 348/365/44 346/366/44
f 336/367/45 347/291/45 348/365/45
f 447/319/46 351/368/46 349/369/46
f 339/370/47 350/247/47 351/368/47
f 266/245/6 344/362/6 331/371/6
f 355/224/2 357/235/2 356/225/2
f 358/223/2 309/222/2 360/227/2
f 329/226/2 356/225/2 312/229/2
f 253/228/2 360/227/2 359/231/2
f 362/233/2 361/372/2 360/227/2
f 265/232/2 359/231/2 357/235/2
f 253/228/2 365/237/2 364/236/2
f 363/234/2 368/267/2 367/239/2
f 429/240/32 343/360/32 304/241/32
f 441/243/6 346/366/6 310/244/6
f 280/246/3 324/316/3 350/247/3
f 375/249/2 373/255/2 372/250/2
f 371/251/2 372/250/2 376/252/2
f 374/254/2 377/257/2 373/255/2
f 378/256/2 379/259/2 377/257/2
f 390/222/4 391/273/4 393/221/4
f 384/258/2 381/263/2 379/259/2
f 388/261/2 386/373/2 380/262/2
f 281/264/5 326/286/5 435/265/5
f 396/225/4 397/235/4 395/224/4
f 400/227/4 390/222/4 398/223/4
f 389/229/4 396/225/4 382/226/4
f 399/231/4 400/227/4 299/228/4
f 400/227/4 401/372/4 402/233/4
f 397/235/4 399/231/4 394/232/4
f 299/228/4 398/223/4 404/236/4
f 403/234/4 397/235/4 407/239/4
f 410/253/4 311/284/4 452/322/4
f 452/322/4 440/311/4 410/253/4
f 440/311/4 439/374/4 443/268/4
f 410/253/4 440/311/4 443/268/4
f 449/270/4 418/256/4 419/259/4
f 419/259/4 423/260/4 446/269/4
f 446/269/4 445/375/4 449/270/4
f 353/272/4 422/258/4 421/263/4
f 421/263/4 426/261/4 438/293/4
f 438/293/4 436/271/4 421/263/4
f 412/250/4 413/255/4 415/249/4
f 416/252/4 412/250/4 411/251/4
f 413/255/4 417/257/4 414/254/4
f 417/257/4 419/259/4 418/256/4
f 419/259/4 421/263/4 422/258/4
f 420/262/4 424/373/4 426/261/4
f 248/274/3 296/355/3 295/275/3
f 257/277/33 303/281/33 308/278/33
f 259/280/34 300/336/34 303/281/34
f 364/236/2 366/238/2 332/283/2
f 366/238/2 369/284/2 332/283/2
f 369/284/2 451/322/2 432/321/2
f 432/321/2 430/282/2 369/284/2
f 271/285/5 315/320/5 326/286/5
f 275/287/3 318/345/3 322/288/3
f 269/290/35 313/295/35 347/291/35
f 381/263/2 384/258/2 434/272/2
f 434/272/2 433/271/2 381/263/2
f 433/271/2 437/293/2 381/263/2
f 276/294/1 319/353/1 313/295/1
f 250/296/1 298/323/1 292/297/1
f 262/299/36 306/341/36 409/300/36
f 286/302/1 328/334/1 425/303/1
f 277/305/1 323/327/1 320/306/1
f 251/308/1 287/329/1 294/309/1
f 451/322/2 369/284/2 370/253/2
f 370/253/2 376/252/2 444/268/2
f 444/268/2 442/374/2 335/311/2
f 335/311/2 451/322/2 370/253/2
f 285/312/6 330/376/6 327/313/6
f 278/315/3 321/358/3 324/316/3
f 252/276/3 295/275/3 289/317/3
f 447/319/5 349/369/5 315/320/5
f 311/284/4 406/238/4 428/283/4
f 406/238/4 404/236/4 428/283/4
f 428/283/4 427/282/4 311/284/4
f 427/282/4 431/321/4 311/284/4
f 260/242/6 304/241/6 298/323/6
f 267/301/5 409/300/5 314/324/5
f 279/326/1 317/356/1 323/327/1
f 243/328/1 288/337/1 287/329/1
f 258/330/37 293/354/37 305/331/37
f 341/333/1 352/377/1 328/334/1
f 254/335/3 297/357/3 300/336/3
f 379/259/2 378/256/2 450/270/2
f 450/270/2 448/375/2 338/269/2
f 338/269/2 385/260/2 379/259/2
f 244/318/5 289/317/5 288/337/5
f 272/338/3 392/378/3 290/339/3
f 261/332/38 305/331/38 306/341/38
f 255/342/3 302/352/3 301/343/3
f 270/325/3 314/324/3 318/345/3
f 245/298/6 292/297/6 291/346/6
f 264/279/5 308/278/5 307/348/5
f 282/314/3 327/313/3 325/350/3
f 249/340/6 290/339/6 302/352/6
f 273/307/1 320/306/1 319/353/1
f 247/310/1 294/309/1 293/354/1
f 263/349/39 307/348/39 296/355/39
f 283/351/6 325/350/6 317/356/6
f 256/344/5 301/343/5 297/357/5
f 274/289/3 322/288/3 321/358/3
f 429/240/40 333/361/40 345/359/40
f 333/361/41 331/371/41 344/362/41
f 435/265/42 354/364/42 342/363/42
f 354/364/43 352/377/43 341/333/43
f 441/243/44 336/367/44 348/365/44
f 336/367/45 334/292/45 347/291/45
f 447/319/46 339/370/46 351/368/46
f 339/370/47 337/248/47 350/247/47
f 266/245/6 310/244/6 344/362/6
f 453/379/2 469/380/2 470/381/2
f 476/382/2 470/381/2 471/383/2
f 456/384/2 471/383/2 472/385/2
f 455/386/2 472/385/2 469/380/2
f 479/380/4 485/379/4 480/381/4
f 480/381/4 467/382/4 481/383/4
f 481/383/4 487/384/4 482/385/4
f 482/385/4 484/386/4 479/380/4
f 474/387/6 488/388/6 478/389/6
f 475/390/5 486/391/5 466/392/5
f 457/393/5 464/394/5 461/395/5
f 458/396/6 463/397/6 459/398/6
f 477/399/3 486/391/3 454/400/3
f 475/390/1 465/401/1 474/387/1
f 459/398/1 483/402/1 473/403/1
f 457/393/3 462/404/3 458/396/3
f 453/379/2 455/386/2 469/380/2
f 476/382/2 453/379/2 470/381/2
f 456/384/2 476/382/2 471/383/2
f 455/386/2 456/384/2 472/385/2
f 479/380/4 484/386/4 485/379/4
f 480/381/4 485/379/4 467/382/4
f 481/383/4 467/382/4 487/384/4
f 482/385/4 487/384/4 484/386/4
f 474/387/6 465/401/6 488/388/6
f 475/390/5 454/400/5 486/391/5
f 457/393/5 460/405/5 464/394/5
f 458/396/6 462/404/6 463/397/6
f 477/399/3 468/406/3 486/391/3
f 475/390/1 466/392/1 465/401/1
f 459/398/1 463/397/1 483/402/1
f 457/393/3 461/395/3 462/404/3
f 529/407/2 524/408/2 523/409/2
f 525/410/2 528/411/2 530/412/2
f 528/411/2 526/413/2 529/407/2
f 521/414/2 530/412/2 522/415/2
f 526/413/2 531/416/2 524/408/2
f 523/409/2 534/417/2 529/407/2
f 528/411/2 536/418/2 530/412/2
f 547/407/4 542/408/4 544/413/4
f 546/411/4 543/410/4 548/412/4
f 546/411/4 544/413/4 545/419/4
f 548/412/4 539/414/4 540/415/4
f 544/413/4 549/416/4 551/420/4
f 541/409/4 552/417/4 553/421/4
f 546/411/4 554/418/4 556/422/4
f 501/423/5 517/424/5 502/425/5
f 492/426/48 508/427/48 490/428/48
f 490/428/49 518/429/49 501/423/49
f 497/430/6 514/431/6 494/432/6
f 491/433/6 510/434/6 497/430/6
f 502/425/50 507/435/50 495/436/50
f 498/437/5 506/438/5 489/439/5
f 503/440/5 555/441/5 537/442/5
f 494/432/6 513/443/6 496/444/6
f 493/445/51 520/446/51 503/440/51
f 500/447/6 550/448/6 532/449/6
f 504/450/52 511/451/52 498/437/52
f 496/444/53 516/452/53 500/447/53
f 495/436/5 512/453/5 493/445/5
f 489/439/1 505/454/1 491/433/1
f 499/455/54 509/456/54 492/426/54
f 529/407/2 526/413/2 524/408/2
f 525/410/2 527/419/2 528/411/2
f 528/411/2 527/419/2 526/413/2
f 521/414/2 525/410/2 530/412/2
f 526/413/2 533/420/2 531/416/2
f 523/409/2 535/421/2 534/417/2
f 528/411/2 538/422/2 536/418/2
f 547/407/4 541/409/4 542/408/4
f 546/411/4 545/419/4 543/410/4
f 546/411/4 547/407/4 544/413/4
f 548/412/4 543/410/4 539/414/4
f 544/413/4 542/408/4 549/416/4
f 541/409/4 547/407/4 552/417/4
f 546/411/4 548/412/4 554/418/4
f 501/423/5 518/429/5 517/424/5
f 492/426/48 509/456/48 508/427/48
f 490/428/49 508/427/49 518/429/49
f 497/430/6 510/434/6 514/431/6
f 491/433/6 505/454/6 510/434/6
f 502/425/50 517/424/50 507/435/50
f 498/437/5 511/451/5 506/438/5
f 503/440/5 520/446/5 555/441/5
f 494/432/6 514/431/6 513/443/6
f 493/445/51 512/453/51 520/446/51
f 500/447/6 516/452/6 550/448/6
f 504/450/52 519/457/52 511/451/52
f 496/444/53 513/443/53 516/452/53
f 495/436/5 507/435/5 512/453/5
f 489/439/1 506/438/1 505/454/1
f 499/455/54 515/458/54 509/456/54
f 568/459/2 589/460/2 588/461/2
f 594/462/4 613/463/4 614/464/4
f 563/465/2 595/466/2 597/467/2
f 565/468/2 563/465/2 597/467/2
f 599/460/4 617/459/4 606/461/4
f 598/469/2 585/470/2 587/471/2
f 614/464/4 616/472/4 594/462/4
f 608/470/4 612/469/4 610/471/4
f 561/473/55 582/474/55 605/475/55
f 562/476/55 577/477/55 561/473/55
f 604/478/56 580/479/56 603/480/56
f 557/481/5 578/482/5 569/483/5
f 607/484/6 601/485/6 591/486/6
f 603/480/56 579/487/56 602/488/56
f 559/489/3 572/490/3 557/481/3
f 567/491/1 583/492/1 607/484/1
f 558/493/5 573/494/5 567/491/5
f 602/488/57 593/495/57 596/496/57
f 590/497/3 574/498/3 558/493/3
f 611/499/6 609/500/6 586/501/6
f 605/475/58 581/502/58 604/478/58
f 569/483/1 584/503/1 611/499/1
f 568/459/2 560/504/2 589/460/2
f 594/462/4 592/505/4 613/463/4
f 563/465/2 564/506/2 595/466/2
f 565/468/2 566/507/2 563/465/2
f 599/460/4 600/504/4 617/459/4
f 598/469/2 570/508/2 585/470/2
f 614/464/4 615/509/4 616/472/4
f 608/470/4 618/508/4 612/469/4
f 561/473/55 577/477/55 582/474/55
f 562/476/55 576/510/55 577/477/55
f 604/478/56 581/502/56 580/479/56
f 557/481/5 572/490/5 578/482/5
f 607/484/6 583/492/6 601/485/6
f 603/480/56 580/479/56 579/487/56
f 559/489/3 571/511/3 572/490/3
f 567/491/1 573/494/1 583/492/1
f 558/493/5 574/498/5 573/494/5
f 602/488/57 579/487/57 593/495/57
f 590/497/3 575/512/3 574/498/3
f 611/499/6 584/503/6 609/500/6
f 605/475/58 582/474/58 581/502/58
f 569/483/1 578/482/1 584/503/1
f 621/513/2 626/514/2 646/515/2
f 639/516/2 641/517/2 640/518/2
f 646/515/2 625/519/2 639/516/2
f 639/516/2 627/520/2 646/515/2
f 653/521/4 656/522/4 657/523/4
f 652/524/4 650/525/4 651/526/4
f 658/527/4 657/523/4 650/525/4
f 650/525/4 659/528/4 660/529/4
f 648/530/59 635/531/59 623/532/59
f 643/533/3 632/534/3 642/535/3
f 647/536/3 631/537/3 620/538/3
f 645/539/6 655/540/6 644/541/6
f 649/542/1 637/543/1 648/530/1
f 619/544/1 629/545/1 624/546/1
f 642/535/3 636/547/3 647/536/3
f 623/532/1 634/548/1 645/539/1
f 624/546/60 638/549/60 649/542/60
f 620/538/5 630/550/5 619/544/5
f 621/513/2 622/551/2 626/514/2
f 639/516/2 625/519/2 641/517/2
f 646/515/2 626/514/2 625/519/2
f 639/516/2 628/552/2 627/520/2
f 653/521/4 654/553/4 656/522/4
f 652/524/4 658/527/4 650/525/4
f 658/527/4 653/521/4 657/523/4
f 650/525/4 657/523/4 659/528/4
f 648/530/59 637/543/59 635/531/59
f 643/533/3 633/554/3 632/534/3
f 647/536/3 636/547/3 631/537/3
f 645/539/6 634/548/6 655/540/6
f 649/542/1 638/549/1 637/543/1
f 619/544/1 630/550/1 629/545/1
f 642/535/3 632/534/3 636/547/3
f 623/532/1 635/531/1 634/548/1
f 624/546/60 629/545/60 638/549/60
f 620/538/5 631/537/5 630/550/5
