# Blender 4.4.0
# www.blender.org
mtllib grab2.mtl
o 円
v 0.000000 1.000000 0.000000
v -0.200683 0.276216 0.000000
v -0.951057 0.309017 0.000000
v -0.324712 -0.105505 -0.000000
v -0.587785 -0.809017 -0.000000
v 0.000000 -0.341422 -0.000000
v 0.587785 -0.809017 -0.000000
v 0.324712 -0.105505 -0.000000
v 0.951057 0.309017 0.000000
v 0.200683 0.276216 0.000000
v 0.000000 -0.000000 0.217864
v 0.000000 0.000000 -0.217864
vn 0.3488 0.5270 -0.7750
vn -0.0276 -0.6313 -0.7750
vn 0.6090 -0.1688 -0.7750
vn -0.6090 -0.1688 -0.7750
vn 0.0276 -0.6313 -0.7750
vn -0.3488 0.5270 -0.7750
vn 0.3934 -0.4945 0.7750
vn -0.5919 0.2213 0.7750
vn -0.3934 -0.4945 0.7750
vn -0.5919 -0.2213 -0.7750
vn 0.3488 0.5270 0.7750
vn -0.0276 -0.6313 0.7750
vn 0.6090 -0.1688 0.7750
vn -0.6090 -0.1688 0.7750
vn 0.0276 -0.6313 0.7750
vn -0.3488 0.5270 0.7750
vn 0.3934 -0.4945 -0.7750
vn -0.5919 0.2213 -0.7750
vn -0.3934 -0.4945 -0.7750
vn -0.5919 -0.2213 0.7750
vt 0.090611 0.591914
vt 0.500000 0.458895
vt 0.360226 0.413480
vt 0.413615 0.577794
vt 0.500000 0.889352
vt 0.586385 0.577794
vt 0.909389 0.591914
vt 0.639775 0.413480
vt 0.246984 0.110648
vt 0.500000 0.311927
vt 0.753016 0.110648
s 0
usemtl マテリアル
f 3/1/1 11/2/1 4/3/1
f 2/4/2 11/2/2 3/1/2
f 1/5/3 11/2/3 2/4/3
f 10/6/4 11/2/4 1/5/4
f 9/7/5 11/2/5 10/6/5
f 8/8/6 11/2/6 9/7/6
f 5/9/7 6/10/7 11/2/7
f 4/3/8 5/9/8 11/2/8
f 6/10/9 7/11/9 11/2/9
f 7/11/10 11/2/10 8/8/10
f 3/1/11 4/3/11 12/2/11
f 2/4/12 3/1/12 12/2/12
f 1/5/13 2/4/13 12/2/13
f 10/6/14 1/5/14 12/2/14
f 9/7/15 10/6/15 12/2/15
f 8/8/16 9/7/16 12/2/16
f 5/9/17 12/2/17 6/10/17
f 4/3/18 12/2/18 5/9/18
f 6/10/19 12/2/19 7/11/19
f 7/11/20 8/8/20 12/2/20
