# Blender 4.4.0
# www.blender.org
mtllib Credit.mtl
o 立方体
v 12.435216 -1.264564 -4.691066
v 11.806049 -9.570143 -6.782232
v 11.806049 -1.264564 -6.782232
v 25.822777 -9.570143 -8.718954
v 25.822800 -1.264560 -8.718950
v 25.193611 -9.570143 -10.810121
v 11.806049 -1.264564 -6.782232
v 25.193611 -1.264564 -10.810100
v 25.193611 -9.570143 -10.810121
v 11.806049 -9.570143 -6.782232
v 12.435216 -9.570143 -4.691066
v 12.435216 -1.264564 -4.691066
v 25.822777 -9.570143 -8.718954
v 12.435216 -9.570143 -4.691066
v 25.822777 -1.264564 -8.718950
v 12.435216 -1.264564 -4.691066
v 25.193600 -1.264560 -10.810100
v 11.806049 -1.264564 -6.782232
vn -0.9576 -0.0000 0.2881
vn -0.2881 -0.0000 -0.9576
vn 0.9576 -0.0000 -0.2881
vn 0.2881 -0.0000 0.9576
vn -0.0000 -1.0000 -0.0000
vn -0.0000 1.0000 -0.0000
vt 0.969641 0.813615
vt 0.969640 0.999929
vt 0.920653 0.999929
vt 0.920654 0.813614
vt 1.000439 0.008498
vt 1.000439 0.993805
vt 0.001067 0.993805
vt 0.001067 0.008498
vt 0.920655 0.500000
vt 0.920657 0.313685
vt 0.969644 0.313685
vt 0.969643 0.500000
vt 0.780015 0.741034
vt 0.780015 0.927349
vt 0.466401 0.927349
vt 0.466401 0.741034
vt 0.920653 0.000071
vt 0.969640 0.000070
s 0
usemtl マテリアル
f 11/1/1 12/2/1 18/3/1 10/4/1
f 2/5/2 3/6/2 8/7/2 9/8/2
f 6/9/3 17/10/3 5/11/3 13/12/3
f 4/13/4 15/14/4 16/15/4 14/16/4
f 10/4/5 6/9/5 13/12/5 11/1/5
f 17/10/6 7/17/6 1/18/6 5/11/6
